<mxfile host="app.diagrams.net" agent="Mozilla/5.0 (Windows NT 10.0; Win64; x64) AppleWebKit/537.36 (KHTML, like Gecko) Chrome/132.0.0.0 Safari/537.36 Edg/132.0.0.0" version="26.0.6">
  <diagram name="Page-1" id="bbxdSLz_4zA9bngpI45p">
    <mxGraphModel dx="1068" dy="471" grid="1" gridSize="10" guides="1" tooltips="1" connect="1" arrows="1" fold="1" page="1" pageScale="1" pageWidth="850" pageHeight="1100" math="0" shadow="0">
      <root>
        <mxCell id="0" />
        <mxCell id="1" parent="0" />
        <mxCell id="xCmtK4mrEEXfJ0U4O8ht-29" value="&lt;p style=&quot;margin:0px;margin-top:4px;text-align:center;&quot;&gt;&lt;b&gt;Hệ thống&lt;/b&gt;&lt;/p&gt;&lt;hr size=&quot;1&quot; style=&quot;border-style:solid;&quot;&gt;&lt;div style=&quot;height:2px;&quot;&gt;&lt;/div&gt;" style="verticalAlign=top;align=left;overflow=fill;html=1;whiteSpace=wrap;" vertex="1" parent="1">
          <mxGeometry x="260" width="260" height="340" as="geometry" />
        </mxCell>
        <mxCell id="xCmtK4mrEEXfJ0U4O8ht-28" value="&lt;p style=&quot;margin:0px;margin-top:4px;text-align:center;&quot;&gt;&lt;b&gt;Người dùng&lt;/b&gt;&lt;/p&gt;&lt;hr size=&quot;1&quot; style=&quot;border-style:solid;&quot;&gt;&lt;div style=&quot;height:2px;&quot;&gt;&lt;/div&gt;" style="verticalAlign=top;align=left;overflow=fill;html=1;whiteSpace=wrap;" vertex="1" parent="1">
          <mxGeometry width="260" height="340" as="geometry" />
        </mxCell>
        <mxCell id="xCmtK4mrEEXfJ0U4O8ht-2" value="" style="edgeStyle=orthogonalEdgeStyle;html=1;verticalAlign=bottom;endArrow=open;endSize=8;strokeColor=#FF0000;rounded=0;" edge="1" parent="1">
          <mxGeometry relative="1" as="geometry">
            <mxPoint x="100" y="59.71" as="targetPoint" />
            <mxPoint x="50" y="59.71" as="sourcePoint" />
          </mxGeometry>
        </mxCell>
        <mxCell id="xCmtK4mrEEXfJ0U4O8ht-4" value="" style="ellipse;html=1;shape=startState;fillColor=#000000;strokeColor=#FF0000;" vertex="1" parent="1">
          <mxGeometry x="20" y="45" width="30" height="30" as="geometry" />
        </mxCell>
        <mxCell id="xCmtK4mrEEXfJ0U4O8ht-17" value="" style="edgeStyle=orthogonalEdgeStyle;rounded=0;orthogonalLoop=1;jettySize=auto;html=1;strokeColor=#FF0000;" edge="1" parent="1" source="xCmtK4mrEEXfJ0U4O8ht-6" target="xCmtK4mrEEXfJ0U4O8ht-8">
          <mxGeometry relative="1" as="geometry" />
        </mxCell>
        <mxCell id="xCmtK4mrEEXfJ0U4O8ht-6" value="Hủy vé" style="rounded=1;whiteSpace=wrap;html=1;arcSize=40;fontColor=#000000;fillColor=#ffffc0;strokeColor=#FF0000;" vertex="1" parent="1">
          <mxGeometry x="100" y="40" width="120" height="40" as="geometry" />
        </mxCell>
        <mxCell id="xCmtK4mrEEXfJ0U4O8ht-19" style="edgeStyle=orthogonalEdgeStyle;rounded=0;orthogonalLoop=1;jettySize=auto;html=1;entryX=0.5;entryY=0;entryDx=0;entryDy=0;strokeColor=#FF0000;" edge="1" parent="1" source="xCmtK4mrEEXfJ0U4O8ht-8" target="xCmtK4mrEEXfJ0U4O8ht-9">
          <mxGeometry relative="1" as="geometry">
            <Array as="points">
              <mxPoint x="360" y="100" />
              <mxPoint x="160" y="100" />
            </Array>
          </mxGeometry>
        </mxCell>
        <mxCell id="xCmtK4mrEEXfJ0U4O8ht-8" value="Hiển thị danh sách vé đã đặt" style="rounded=1;whiteSpace=wrap;html=1;arcSize=40;fontColor=#000000;fillColor=#ffffc0;strokeColor=#FF0000;" vertex="1" parent="1">
          <mxGeometry x="300" y="40" width="120" height="40" as="geometry" />
        </mxCell>
        <mxCell id="xCmtK4mrEEXfJ0U4O8ht-21" style="edgeStyle=orthogonalEdgeStyle;rounded=0;orthogonalLoop=1;jettySize=auto;html=1;entryX=0.5;entryY=0;entryDx=0;entryDy=0;strokeColor=#FF0000;" edge="1" parent="1" source="xCmtK4mrEEXfJ0U4O8ht-9" target="xCmtK4mrEEXfJ0U4O8ht-11">
          <mxGeometry relative="1" as="geometry" />
        </mxCell>
        <mxCell id="xCmtK4mrEEXfJ0U4O8ht-9" value="Chọn vé muốn hủy" style="rounded=1;whiteSpace=wrap;html=1;arcSize=40;fontColor=#000000;fillColor=#ffffc0;strokeColor=#FF0000;" vertex="1" parent="1">
          <mxGeometry x="100" y="120" width="120" height="40" as="geometry" />
        </mxCell>
        <mxCell id="xCmtK4mrEEXfJ0U4O8ht-22" value="" style="edgeStyle=orthogonalEdgeStyle;rounded=0;orthogonalLoop=1;jettySize=auto;html=1;strokeColor=#FF0000;" edge="1" parent="1" source="xCmtK4mrEEXfJ0U4O8ht-11" target="xCmtK4mrEEXfJ0U4O8ht-15">
          <mxGeometry relative="1" as="geometry" />
        </mxCell>
        <mxCell id="xCmtK4mrEEXfJ0U4O8ht-23" value="" style="edgeStyle=orthogonalEdgeStyle;rounded=0;orthogonalLoop=1;jettySize=auto;html=1;strokeColor=#FF0000;" edge="1" parent="1" source="xCmtK4mrEEXfJ0U4O8ht-11" target="xCmtK4mrEEXfJ0U4O8ht-16">
          <mxGeometry relative="1" as="geometry" />
        </mxCell>
        <mxCell id="xCmtK4mrEEXfJ0U4O8ht-11" value="Xác nhận&lt;br&gt;hủy vé" style="rhombus;whiteSpace=wrap;html=1;fontColor=#000000;fillColor=#ffffc0;strokeColor=#FF0000;" vertex="1" parent="1">
          <mxGeometry x="300" y="160" width="120" height="80" as="geometry" />
        </mxCell>
        <mxCell id="xCmtK4mrEEXfJ0U4O8ht-24" style="edgeStyle=orthogonalEdgeStyle;rounded=0;orthogonalLoop=1;jettySize=auto;html=1;entryX=0.5;entryY=1;entryDx=0;entryDy=0;strokeColor=#FF0000;" edge="1" parent="1" source="xCmtK4mrEEXfJ0U4O8ht-15" target="xCmtK4mrEEXfJ0U4O8ht-16">
          <mxGeometry relative="1" as="geometry" />
        </mxCell>
        <mxCell id="xCmtK4mrEEXfJ0U4O8ht-15" value="Xóa vé khỏi CSDL" style="rounded=1;whiteSpace=wrap;html=1;arcSize=40;fontColor=#000000;fillColor=#ffffc0;strokeColor=#FF0000;" vertex="1" parent="1">
          <mxGeometry x="300" y="280" width="120" height="40" as="geometry" />
        </mxCell>
        <mxCell id="xCmtK4mrEEXfJ0U4O8ht-16" value="" style="ellipse;html=1;shape=endState;fillColor=#000000;strokeColor=#FF0000;align=center;verticalAlign=middle;fontFamily=Helvetica;fontSize=12;fontColor=#000000;" vertex="1" parent="1">
          <mxGeometry x="470" y="185" width="30" height="30" as="geometry" />
        </mxCell>
        <mxCell id="xCmtK4mrEEXfJ0U4O8ht-26" value="Đúng" style="text;html=1;align=center;verticalAlign=middle;whiteSpace=wrap;rounded=0;fontFamily=Helvetica;fontSize=12;fontColor=#000000;" vertex="1" parent="1">
          <mxGeometry x="350" y="230" width="60" height="30" as="geometry" />
        </mxCell>
        <mxCell id="xCmtK4mrEEXfJ0U4O8ht-27" value="Sai" style="text;html=1;align=center;verticalAlign=middle;resizable=0;points=[];autosize=1;strokeColor=none;fillColor=none;fontFamily=Helvetica;fontSize=12;fontColor=#000000;" vertex="1" parent="1">
          <mxGeometry x="405" y="170" width="40" height="30" as="geometry" />
        </mxCell>
      </root>
    </mxGraphModel>
  </diagram>
</mxfile>
